HIERARCHY
ROOT Hips
{
	OFFSET 0.00000 0.00000 0.00000
	CHANNELS 6 Xposition Yposition Zposition Zrotation Yrotation Xrotation 
	JOINT LHipJoint
	{
		OFFSET 0 0 0
		CHANNELS 3 Zrotation Yrotation Xrotation
		JOINT LeftHip
		{
			OFFSET 1.78158 -1.79992 1.25746
			CHANNELS 3 Zrotation Yrotation Xrotation
			JOINT LeftKnee
			{
				OFFSET 2.48433 -6.82566 0.00000
				CHANNELS 3 Zrotation Yrotation Xrotation
				JOINT LeftAnkle
				{
					OFFSET 2.69722 -7.41057 0.00000
					CHANNELS 3 Zrotation Yrotation Xrotation
					JOINT LeftToe
					{
						OFFSET 0.10733 -0.29489 1.75071
						CHANNELS 3 Zrotation Yrotation Xrotation
						End Site
						{
							OFFSET 0.00000 -0.00000 0.90224
						}
					}
				}
			}
		}
	}
	JOINT RHipJoint
	{
		OFFSET 0 0 0
		CHANNELS 3 Zrotation Yrotation Xrotation
		JOINT RightHip
		{
			OFFSET -1.91234 -1.79993 1.25746
			CHANNELS 3 Zrotation Yrotation Xrotation
			JOINT RightKnee
			{
				OFFSET -2.33122 -6.40498 0.00000
				CHANNELS 3 Zrotation Yrotation Xrotation
				JOINT RightAnkle
				{
					OFFSET -2.75667 -7.57390 0.00000
					CHANNELS 3 Zrotation Yrotation Xrotation
					JOINT RightToe
					{
						OFFSET -0.15946 -0.43811 1.78925
						CHANNELS 3 Zrotation Yrotation Xrotation
						End Site
						{
							OFFSET -0.00000 -0.00000 0.93158
						}
					}
				}
			}
		}
	}
	JOINT lowerback
	{
		OFFSET 0 0 0
		CHANNELS 3 Zrotation Yrotation Xrotation
		JOINT Chest
		{
			OFFSET -0.02267 2.03993 -0.26238
			CHANNELS 3 Zrotation Yrotation Xrotation
			JOINT Chest2
			{
				OFFSET 0.02263 2.06220 -0.00892
				CHANNELS 3 Zrotation Yrotation Xrotation
				JOINT lowerneck
				{
					OFFSET 0 0 0
					CHANNELS 3 Zrotation Yrotation Xrotation
					JOINT Neck
					{
						OFFSET -0.06177 1.95978 0.28606
						CHANNELS 3 Zrotation Yrotation Xrotation
						JOINT Head
						{
							OFFSET 0.08482 1.96576 -0.43252
							CHANNELS 3 Zrotation Yrotation Xrotation
							End Site
							{
								OFFSET 0.02787 2.02739 -0.18071
							}
						}
					}
				}
				JOINT LeftCollar
				{
					OFFSET 0 0 0
					CHANNELS 3 Zrotation Yrotation Xrotation
					JOINT LeftShoulder
					{
						OFFSET 3.80978 1.64906 0.29973
CHANNELS 3 Zrotation Xrotation Yrotation
						JOINT LeftElbow
						{
OFFSET 0 -4.930420 0.000000
CHANNELS 3 Zrotation Xrotation Yrotation
							JOINT LeftWrist
							{
OFFSET 0 -3.681770 0.000000
CHANNELS 3 Zrotation Xrotation Yrotation
								JOINT lhand
								{
									OFFSET 0 0 0
CHANNELS 3 Zrotation Xrotation Yrotation
									JOINT LFingers
									{
OFFSET 0 -0.721480 0.000000
CHANNELS 3 Zrotation Xrotation Yrotation
										End Site
										{
OFFSET 0 -0.581680 0.000000
										}
									}
								}
								JOINT LThumb
								{
OFFSET 0 0.000000 0.000000
CHANNELS 3 Zrotation Xrotation Yrotation
									End Site
									{
OFFSET 0 -0.590560 0.590560
									}
								}
							}
						}
					}
				}
				JOINT RightCollar
				{
					OFFSET 0 0 0
					CHANNELS 3 Zrotation Yrotation Xrotation
					JOINT RightShoulder
					{
						OFFSET -3.49270 1.85636 0.09297
CHANNELS 3 Zrotation Xrotation Yrotation
						JOINT RightElbow
						{
OFFSET 0 -5.079050 -0.000000
CHANNELS 3 Zrotation Xrotation Yrotation
							JOINT RightWrist
							{
OFFSET 0 -3.543940 0.000000
CHANNELS 3 Zrotation Xrotation Yrotation
								JOINT rhand
								{
									OFFSET 0 0 0
CHANNELS 3 Zrotation Xrotation Yrotation
									JOINT RFingers
									{
OFFSET 0 -0.681160 0.000000
CHANNELS 3 Zrotation Xrotation Yrotation
										End Site
										{
OFFSET 0 -0.549170 0.000000
										}
									}
								}
								JOINT RThumb
								{
OFFSET 0 0.000000 0.000000
CHANNELS 3 Zrotation Xrotation Yrotation
									End Site
									{
OFFSET 0 -0.557550 0.557550
									}
								}
							}
						}
					}
				}
			}
		}
	}
}
MOTION
Frames: 12
Frame Time: 0.008333333333333333
-9.994673 17.971455 -16.446259 -174.463713 85.842948 -170.417730 0.000000 0.000000 0.000000 -13.519726 -13.906413 -1.686241 1.330134 7.303345 20.617275 1.412395 -2.688470 -21.751916 0.427260 4.195140 11.626200 0.000000 0.000000 0.000000 15.466826 -4.041752 6.115096 0.000000 0.000000 0.000000 0.387457 -14.454026 -15.385494 -0.037866 1.255486 -3.452138 0.361423 -0.571015 2.713292 2.047898 -0.578312 -4.075070 1.965667 -0.226692 -5.727675 -7.835302 -5.072914 -27.188827 3.501934 -4.736838 34.183621 1.921127 -2.235204 17.464582 0.000000 0.000000 0.000000 0.763111 -20.175703 -55.382450 77.536762 -59.403537 49.228209 44.765881 -19.414586 -18.360720 0.000000 0.000000 0.000000 -7.125000 0.000000 0.000000 17.997359 54.120799 -4.137223 0.000000 0.000000 0.000000 -9.265291 -22.219364 46.348805 -77.695994 -59.418370 -49.365311 -32.132898 28.907571 38.799196 0.000000 0.000000 0.000000 7.125000 0.000000 0.000000 4.980958 73.442823 -3.357618
-10.001744 17.974087 -16.445786 -174.727546 85.892269 -170.619589 0.000000 0.000000 0.000000 -13.522083 -13.868227 -1.779702 1.327457 7.296283 20.596148 1.406608 -2.678632 -21.707967 0.426775 4.192800 11.619600 0.000000 0.000000 0.000000 15.444377 -3.968052 6.031246 0.000000 0.000000 0.000000 0.390408 -14.461453 -15.350451 -0.036568 1.233182 -3.390640 0.368212 -0.597007 2.750698 2.047306 -0.613761 -4.047198 1.964109 -0.245136 -5.718730 -7.753744 -5.018832 -27.393819 3.469936 -4.671721 34.108525 1.903068 -2.204254 17.463462 0.000000 0.000000 0.000000 0.924567 -20.779013 -55.188739 76.658443 -59.314527 48.472648 44.892542 -19.517739 -18.416397 0.000000 0.000000 0.000000 -7.125000 0.000000 0.000000 18.159738 54.223225 -4.222643 0.000000 0.000000 0.000000 -9.295689 -23.169131 46.622951 -76.596158 -59.306558 -48.419181 -32.122426 28.894439 38.969572 0.000000 0.000000 0.000000 7.125000 0.000000 0.000000 5.200923 73.609531 -3.524848
-10.008869 17.977050 -16.445177 -174.985115 85.957578 -170.808726 0.000000 0.000000 0.000000 -13.523741 -13.819790 -1.875893 1.323799 7.286667 20.567311 1.400887 -2.663034 -21.665807 0.424795 4.183090 11.592263 0.000000 0.000000 0.000000 15.420903 -3.876450 5.942923 0.000000 0.000000 0.000000 0.392482 -14.464743 -15.321614 -0.034314 1.194981 -3.285321 0.373204 -0.614108 2.791602 2.043898 -0.637350 -4.023286 1.959849 -0.257605 -5.716345 -7.670257 -4.965502 -27.588064 3.436067 -4.609253 34.018973 1.883083 -2.174562 17.452191 0.000000 0.000000 0.000000 1.102101 -21.388237 -55.010322 75.778867 -59.221726 47.716412 45.001294 -19.630345 -18.482665 0.000000 0.000000 0.000000 -7.125000 0.000000 0.000000 18.303560 54.334439 -4.307998 0.000000 0.000000 0.000000 -9.320669 -24.126317 46.883686 -75.450772 -59.184415 -47.434504 -32.150491 28.939764 39.140511 0.000000 0.000000 0.000000 7.125000 0.000000 0.000000 5.360619 73.790036 -3.653626
-10.015876 17.980949 -16.444567 -175.222761 86.037829 -170.958017 0.000000 0.000000 0.000000 -13.519597 -13.770007 -1.985210 1.318559 7.272774 20.525875 1.395342 -2.635248 -21.626869 0.422053 4.169807 11.554788 0.000000 0.000000 0.000000 15.400124 -3.763051 5.834033 0.000000 0.000000 0.000000 0.394615 -14.471080 -15.298520 -0.032059 1.155373 -3.176369 0.381125 -0.616911 2.835962 2.036038 -0.641249 -4.012501 1.948088 -0.260347 -5.730542 -7.580500 -4.913402 -27.751369 3.385674 -4.548075 33.900942 1.853956 -2.147507 17.418068 0.000000 0.000000 0.000000 1.300261 -21.983632 -54.870111 74.959353 -59.125936 47.012797 45.045472 -19.756663 -18.557372 0.000000 0.000000 0.000000 -7.125000 0.000000 0.000000 18.372904 54.439734 -4.373138 0.000000 0.000000 0.000000 -9.330297 -25.080984 47.089280 -74.198621 -59.030981 -46.360466 -32.309287 29.142190 39.247696 0.000000 0.000000 0.000000 7.125000 0.000000 0.000000 5.228146 73.952610 -3.581296
-10.022835 17.985164 -16.444200 -175.464765 86.114498 -171.105613 0.000000 0.000000 0.000000 -13.514946 -13.732447 -2.097844 1.313149 7.258421 20.483108 1.390063 -2.600417 -21.591853 0.420473 4.162090 11.533023 0.000000 0.000000 0.000000 15.380120 -3.650861 5.716863 0.000000 0.000000 0.000000 0.397425 -14.482307 -15.273610 -0.030506 1.128014 -3.101114 0.392387 -0.618188 2.880298 2.027378 -0.642729 -4.006194 1.933496 -0.261952 -5.749533 -7.490041 -4.861424 -27.903394 3.327801 -4.485347 33.777973 1.821755 -2.120960 17.378473 0.000000 0.000000 0.000000 1.495831 -22.566100 -54.740260 74.174964 -59.031115 46.339779 45.058544 -19.881964 -18.625808 0.000000 0.000000 0.000000 -7.125000 0.000000 0.000000 18.403637 54.529077 -4.421381 0.000000 0.000000 0.000000 -9.332784 -26.025896 47.270595 -72.912895 -58.863604 -45.258952 -32.507420 29.378263 39.310460 0.000000 0.000000 0.000000 7.125000 0.000000 0.000000 4.972775 74.084901 -3.420248
-10.029721 17.989856 -16.444200 -175.713379 86.185731 -171.250638 0.000000 0.000000 0.000000 -13.509522 -13.713436 -2.215509 1.307482 7.243370 20.438321 1.385189 -2.554899 -21.562787 0.420655 4.162822 11.535095 0.000000 0.000000 0.000000 15.361291 -3.540508 5.587133 0.000000 0.000000 0.000000 0.401264 -14.500953 -15.245946 -0.030019 1.119240 -3.076984 0.408718 -0.617153 2.924598 2.017507 -0.640535 -4.006681 1.914606 -0.261830 -5.775796 -7.398517 -4.809629 -28.038304 3.258579 -4.420268 33.647511 1.784889 -2.095185 17.330578 0.000000 0.000000 0.000000 1.687471 -23.128956 -54.626129 73.443867 -58.937763 45.713186 45.024421 -20.005723 -18.684732 0.000000 0.000000 0.000000 -7.125000 0.000000 0.000000 18.375790 54.594217 -4.443988 0.000000 0.000000 0.000000 -9.324436 -26.956006 47.415071 -71.576227 -58.675071 -44.115753 -32.765235 29.665389 39.305829 0.000000 0.000000 0.000000 7.125000 0.000000 0.000000 4.530936 74.171246 -3.124591
-10.036468 17.994732 -16.445075 -175.998394 86.245629 -171.429299 0.000000 0.000000 0.000000 -13.510872 -13.731332 -2.327968 1.302183 7.229287 20.396482 1.381880 -2.488185 -21.550493 0.424110 4.179634 11.582506 0.000000 0.000000 0.000000 15.339790 -3.440015 5.450629 0.000000 0.000000 0.000000 0.406301 -14.527294 -15.213167 -0.030914 1.135116 -3.120633 0.431407 -0.617130 2.968852 2.006898 -0.639217 -4.010578 1.891477 -0.262353 -5.805699 -7.312153 -4.758342 -28.157502 3.182169 -4.351458 33.520782 1.747010 -2.069686 17.281071 0.000000 0.000000 0.000000 1.856580 -23.671814 -54.517435 72.751245 -58.844088 45.120228 44.927034 -20.120313 -18.721033 0.000000 0.000000 0.000000 -7.125000 0.000000 0.000000 18.266756 54.614293 -4.425356 0.000000 0.000000 0.000000 -9.299085 -27.857687 47.521811 -70.193022 -58.458432 -42.936014 -33.027889 29.927448 39.221531 0.000000 0.000000 0.000000 7.125000 0.000000 0.000000 3.981462 74.179306 -2.746458
-10.043157 17.999654 -16.446387 -176.300826 86.301472 -171.625608 0.000000 0.000000 0.000000 -13.516328 -13.766191 -2.436104 1.297123 7.215824 20.356493 1.379407 -2.410654 -21.547303 0.428948 4.203188 11.648934 0.000000 0.000000 0.000000 15.316508 -3.343446 5.313021 0.000000 0.000000 0.000000 0.411731 -14.556124 -15.178619 -0.032303 1.159776 -3.188451 0.456680 -0.617379 3.013434 1.995933 -0.638090 -4.015203 1.866554 -0.263077 -5.836587 -7.229270 -4.707533 -28.270076 3.104135 -4.281352 33.397226 1.709533 -2.044346 17.231850 0.000000 0.000000 0.000000 2.013150 -24.208280 -54.409281 72.066702 -58.748865 44.534541 44.799437 -20.231167 -18.746959 0.000000 0.000000 0.000000 -7.125000 0.000000 0.000000 18.119193 54.613478 -4.387494 0.000000 0.000000 0.000000 -9.265209 -28.745390 47.612687 -68.789530 -58.228192 -41.740616 -33.291402 30.170479 39.095648 0.000000 0.000000 0.000000 7.125000 0.000000 0.000000 3.381005 74.145666 -2.329823
-10.049738 18.004468 -16.448886 -176.646937 86.354242 -171.874222 0.000000 0.000000 0.000000 -13.536558 -13.839983 -2.523911 1.292980 7.204734 20.323405 1.379468 -2.302495 -21.572530 0.436322 4.238713 11.749172 0.000000 0.000000 0.000000 15.286163 -3.252592 5.183717 0.000000 0.000000 0.000000 0.417215 -14.585007 -15.143155 -0.034070 1.190853 -3.274065 0.486050 -0.617196 3.060659 1.984050 -0.636262 -4.016970 1.838341 -0.263747 -5.866018 -7.160352 -4.659150 -28.370680 3.031440 -4.210546 33.288823 1.677664 -2.019546 17.188830 0.000000 0.000000 0.000000 2.129170 -24.745177 -54.291799 71.348889 -58.642533 43.921354 44.596402 -20.336036 -18.749214 0.000000 0.000000 0.000000 -7.125000 0.000000 0.000000 17.876673 54.563756 -4.304013 0.000000 0.000000 0.000000 -9.207930 -29.596102 47.675145 -67.345434 -57.963064 -40.515398 -33.549522 30.329337 38.847522 0.000000 0.000000 0.000000 7.125000 0.000000 0.000000 2.655392 73.985468 -1.821626
-10.056348 18.008964 -16.451875 -176.989292 86.413741 -172.128324 0.000000 0.000000 0.000000 -13.563951 -13.922382 -2.596989 1.289356 7.195030 20.294505 1.380915 -2.180559 -21.612602 0.443464 4.272794 11.845367 0.000000 0.000000 0.000000 15.252698 -3.158099 5.066688 0.000000 0.000000 0.000000 0.421833 -14.608431 -15.111734 -0.035116 1.209164 -3.324530 0.515363 -0.613923 3.110973 1.971937 -0.630448 -4.014376 1.809550 -0.262540 -5.892764 -7.101919 -4.613685 -28.466402 2.968131 -4.142743 33.190471 1.651456 -1.995727 17.150979 0.000000 0.000000 0.000000 2.218648 -25.299548 -54.163833 70.563927 -58.521472 43.251587 44.354897 -20.447952 -18.747079 0.000000 0.000000 0.000000 -7.125000 0.000000 0.000000 17.588230 54.498985 -4.203319 0.000000 0.000000 0.000000 -9.139330 -30.428272 47.729315 -65.885193 -57.678240 -39.279523 -33.693387 30.412813 38.666631 0.000000 0.000000 0.000000 7.125000 0.000000 0.000000 2.205684 73.852881 -1.505664
-10.062990 18.013108 -16.455409 -177.327481 86.480708 -172.388516 0.000000 0.000000 0.000000 -13.599293 -14.014333 -2.653719 1.286309 7.186865 20.270253 1.383901 -2.043334 -21.669150 0.450349 4.305272 11.937074 0.000000 0.000000 0.000000 15.215771 -3.059567 4.963282 0.000000 0.000000 0.000000 0.425489 -14.625798 -15.084801 -0.035359 1.213308 -3.335985 0.544612 -0.607220 3.164718 1.959567 -0.620211 -4.006942 1.780119 -0.259250 -5.916528 -7.055121 -4.571457 -28.556708 2.915239 -4.078274 33.103273 1.631530 -1.972998 17.118867 0.000000 0.000000 0.000000 2.278669 -25.873311 -54.024231 69.704440 -58.384064 42.519028 44.070696 -20.567689 -18.740071 0.000000 0.000000 0.000000 -7.125000 0.000000 0.000000 17.248823 54.417516 -4.083521 0.000000 0.000000 0.000000 -9.058165 -31.239864 47.774284 -64.407035 -57.371554 -38.031820 -33.710449 30.412631 38.560360 0.000000 0.000000 0.000000 7.125000 0.000000 0.000000 2.062182 73.750937 -1.403049
-10.069581 18.016642 -16.459147 -177.578377 86.568433 -172.581209 0.000000 0.000000 0.000000 -13.637935 -14.092530 -2.688728 1.284227 7.181186 20.253411 1.388206 -1.897125 -21.739603 0.453327 4.319328 11.976761 0.000000 0.000000 0.000000 15.179809 -2.946926 4.887941 0.000000 0.000000 0.000000 0.426557 -14.627888 -15.070302 -0.033268 1.176190 -3.233809 0.570613 -0.590672 3.225060 1.948365 -0.597184 -3.989815 1.752616 -0.249565 -5.934152 -7.028573 -4.537451 -28.637827 2.884171 -4.024970 33.030590 1.622871 -1.953822 17.094468 0.000000 0.000000 0.000000 2.284894 -26.503864 -53.864379 68.661539 -58.203873 41.632235 43.731076 -20.722191 -18.742453 0.000000 0.000000 0.000000 -7.125000 0.000000 0.000000 16.848057 54.334422 -3.950325 0.000000 0.000000 0.000000 -8.968219 -32.023695 47.808698 -62.914158 -57.029597 -36.777976 -33.579215 30.340127 38.572289 0.000000 0.000000 0.000000 7.125000 0.000000 0.000000 2.299620 73.717406 -1.562768
